<?xml version="1.0" standalone="no"?><!-- Generator: Gravit.io --><svg xmlns="http://www.w3.org/2000/svg" xmlns:xlink="http://www.w3.org/1999/xlink" style="isolation:isolate" viewBox="150 662 200 238" width="200" height="238"><path d=" M 250 760.2323581030087 L 160 760.2323581030087 L 160 745.785886482407 L 182.4999999999999 716.8929432412035 L 227.5 688 L 250 688 L 250 760.2323581030087 Z " fill="rgb(185,185,185)" stroke-width="1" stroke="rgba(0,0,0,0)" stroke-linejoin="miter" stroke-linecap="square"/><path d=" M 250 760.2323581030087 L 340 760.2323581030087 L 340 745.785886482407 L 317.5 716.8929432412035 L 272.5 688 L 250 688 L 250 760.2323581030087 Z " fill="rgb(139,139,139)" stroke-width="1" stroke="rgba(0,0,0,0)" stroke-linejoin="miter" stroke-linecap="square"/><path d=" M 250 760.2323581030087 L 204.9999999999999 760.2323581030087 L 205 742 L 250 742 L 250 760.2323581030087 L 250 760.2323581030087 Z " fill="rgb(70,70,70)" stroke-width="1" stroke="rgba(0,0,0,0)" stroke-linejoin="miter" stroke-linecap="square"/><path d=" M 250 760.2323581030087 L 295 760.2323581030087 L 295 742 L 250 742 L 250 760.2323581030087 L 250 760.2323581030087 Z " fill="rgb(42,42,42)" stroke-width="1" stroke="rgba(0,0,0,0)" stroke-linejoin="miter" stroke-linecap="square"/><path d=" M 250 900 L 230 900 L 220 890 L 179.99999999999994 850 L 160 800 L 160 760 L 250 760 L 250 900 Z " fill="rgb(233,180,145)" stroke-width="1" stroke="rgba(0,0,0,0)" stroke-linejoin="miter" stroke-linecap="square"/><path d=" M 250 900 L 269.99999999999994 900 L 279.99999999999994 890 L 320 850 L 340 800 L 340 760 L 250 760 L 250 900 Z " fill="rgb(213,158,121)" stroke-width="1" stroke="rgba(0,0,0,0)" stroke-linejoin="miter" stroke-linecap="square"/><path d=" M 249.99999999999994 900 L 229.99999999999994 900 L 239.99999999999994 880 L 249.99999999999994 880 L 249.99999999999994 900 Z " fill="rgb(213,158,121)" stroke-width="1" stroke="rgba(0,0,0,0)" stroke-linejoin="miter" stroke-linecap="square"/><path d=" M 249.99999999999994 900 L 269.99999999999994 900 L 259.99999999999994 880 L 249.99999999999994 880 L 249.99999999999994 900 Z " fill="rgb(180,134,102)" stroke-width="1" stroke="rgba(0,0,0,0)" stroke-linejoin="miter" stroke-linecap="square"/><path d=" M 230 780.2323581030087 L 210 770.2323581030087 L 180 780.2323581030087 L 180 770.2323581030087 L 230 770.2323581030087 L 230 780.2323581030087 Z " fill="rgb(0,0,0)" stroke-width="1" stroke="rgba(0,0,0,0)" stroke-linejoin="miter" stroke-linecap="square"/><path d=" M 230 780.2323581030087 L 210 770.2323581030087 L 180 780.2323581030087 L 180 770.2323581030087 L 230 770.2323581030087 L 230 780.2323581030087 Z " fill="rgb(255,255,255)" fill-opacity="0.1" stroke-width="1" stroke="rgba(0,0,0,0)" stroke-linejoin="miter" stroke-linecap="square"/><path d=" M 270 780.2323581030087 L 270 770.2323581030087 L 320 770.2323581030087 L 320 780.2323581030087 L 290 770.2323581030087 L 270 780.2323581030087 Z " fill="rgb(0,0,0)" stroke-width="1" stroke="rgba(0,0,0,0)" stroke-linejoin="miter" stroke-linecap="square"/><path d=" M 178 792 L 208 782 L 228 792 L 208 802.0000000000001 L 178 792 Z " fill="rgb(255,255,255)" stroke-width="1" stroke="rgba(0,0,0,0)" stroke-linejoin="miter" stroke-linecap="square"/><radialGradient id="_rgradient_2" fx="50%" fy="50%" cx="50%" cy="50%" r="50%"><stop offset="0%" style="stop-color:rgb(0,0,0)"/><stop offset="0%" style="stop-color:rgb(0,0,0)"/><stop offset="74.54545454545455%" style="stop-color:rgb(230,138,0)"/></radialGradient><path d=" M 197.50000000000003 795.3333333333334 L 197.50000000000003 788.6666666666667 L 204.16666666666669 782 L 210.83333333333337 782 L 217.50000000000003 788.6666666666667 L 217.50000000000003 795.3333333333334 L 210.83333333333337 802 L 204.16666666666669 802 L 197.50000000000003 795.3333333333334 Z " fill="url(#_rgradient_2)" stroke-width="1" stroke="rgba(0,0,0,0)" stroke-linejoin="miter" stroke-linecap="square"/><path d=" M 205.83333333333337 787.0774527010029 L 209.16666666666669 787.0774527010029 L 212.50000000000003 790.4107860343363 L 212.50000000000003 793.7441193676696 L 209.16666666666669 797.0774527010029 L 205.83333333333337 797.0774527010029 L 202.50000000000003 793.7441193676696 L 202.50000000000003 790.4107860343363 L 205.83333333333337 787.0774527010029 Z " fill="rgb(0,0,0)" stroke-width="1" stroke="rgba(0,0,0,0)" stroke-linejoin="miter" stroke-linecap="square"/><path d="M 210 777.0000000000001 L 176 792 L 210 807 L 227 792 L 210 777.0000000000001 Z M 177 792 L 207 782 L 227 792 L 207 802 L 177 792 Z" style="stroke:none;fill:#D59E79;stroke-miterlimit:10;fill-rule:evenodd;"/><path d=" M 321.99999999999994 792 L 291.99999999999994 802 L 271.99999999999994 792 L 291.9999999999999 781.9999999999999 L 321.99999999999994 792 Z " fill="rgb(244,244,244)" stroke-width="1" stroke="rgba(0,0,0,0)" stroke-linejoin="miter" stroke-linecap="square"/><radialGradient id="_rgradient_3" fx="50%" fy="50%" cx="50%" cy="50%" r="50%"><stop offset="0%" style="stop-color:rgb(0,0,0)"/><stop offset="0%" style="stop-color:rgb(0,0,0)"/><stop offset="74.54545454545455%" style="stop-color:rgb(179,107,0)"/></radialGradient><path d=" M 282.50000000000017 795.3333333333334 L 282.50000000000017 788.6666666666667 L 289.16666666666686 782 L 295.8333333333335 782 L 302.50000000000017 788.6666666666667 L 302.50000000000017 795.3333333333334 L 295.8333333333335 802 L 289.16666666666686 802 L 282.50000000000017 795.3333333333334 Z " fill="url(#_rgradient_3)" stroke-width="1" stroke="rgba(0,0,0,0)" stroke-linejoin="miter" stroke-linecap="square"/><path d=" M 290.8333333333335 787.0774527010029 L 294.16666666666686 787.0774527010029 L 297.50000000000017 790.4107860343363 L 297.50000000000017 793.7441193676696 L 294.16666666666686 797.0774527010029 L 290.8333333333335 797.0774527010029 L 287.50000000000017 793.7441193676696 L 287.50000000000017 790.4107860343363 L 290.8333333333335 787.0774527010029 Z " fill="rgb(0,0,0)" stroke-width="1" stroke="rgba(0,0,0,0)" stroke-linejoin="miter" stroke-linecap="square"/><path d="M 272 792 L 289 807 L 323 792 L 289 776.9999999999999 L 272 792 Z M 322 792 L 292 802 L 272 792 L 292.00000000000006 781.9999999999999 L 322 792 Z" style="stroke:none;fill:#B48666;stroke-miterlimit:10;fill-rule:evenodd;"/><path d=" M 250.00000000000003 802 L 270 832 L 250 842 L 250.00000000000003 802 Z " fill="rgb(180,134,102)" stroke-width="1" stroke="rgba(0,0,0,0)" stroke-linejoin="miter" stroke-linecap="square"/><path d=" M 250 802 L 229.99999999999997 832 L 249.99999999999997 842 L 250 802 Z " fill="rgb(213,158,121)" stroke-width="1" stroke="rgba(0,0,0,0)" stroke-linejoin="miter" stroke-linecap="square"/><path d=" M 160 760.2323581030087 L 150 780.2323581030087 L 160 790.2323581030087 L 160 760.2323581030087 Z " fill="rgb(0,0,0)" stroke-width="1" stroke="rgba(0,0,0,0)" stroke-linejoin="miter" stroke-linecap="square"/><path d=" M 205 742 L 294.9999999999999 742 L 274.9999999999999 712 L 264.99999999999994 692 L 274.9999999999999 662 L 234.99999999999994 692 L 214.99999999999994 722 L 205 742 Z " fill="rgb(0,0,0)" stroke-width="1" stroke="rgba(0,0,0,0)" stroke-linejoin="miter" stroke-linecap="square"/><path d=" M 340 760 L 350 780 L 340 790 L 340 760 Z " fill="rgb(0,0,0)" stroke-width="1" stroke="rgba(0,0,0,0)" stroke-linejoin="miter" stroke-linecap="square"/><path d=" M 205 742 L 214.99999999999994 722 L 235 692 L 275 662 L 264.99999999999994 692 L 258.64890168722263 682.2465342541029 L 244.99999999999994 692 L 205 742 Z " fill="rgb(255,255,255)" fill-opacity="0.2" stroke-width="1" stroke="rgba(0,0,0,0)" stroke-linejoin="miter" stroke-linecap="square"/><path d=" M 160 760 L 150 780 L 160 790 L 160 760 Z " fill="rgb(255,255,255)" fill-opacity="0.1" stroke-width="1" stroke="rgba(0,0,0,0)" stroke-linejoin="miter" stroke-linecap="square"/><path d=" M 250 862.4079551682686 L 259.1840896634628 867 L 277.5522689903885 862.4079551682686 L 286.7363586538513 853.2238655048058 L 277.5522689903885 857.8159103365372 L 250 862.4079551682686 Z " fill="rgb(152,74,51)" stroke-width="1" stroke="rgba(0,0,0,0)" stroke-linejoin="miter" stroke-linecap="square"/><path d=" M 250 862.4079551682686 L 254.5920448317314 857.8159103365372 L 272.96022415865707 853.2238655048058 L 286.7363586538513 853.2238655048058 L 277.5522689903885 857.8159103365372 L 250 862.4079551682686 Z " fill="rgb(106,21,10)" stroke-width="1" stroke="rgba(0,0,0,0)" stroke-linejoin="miter" stroke-linecap="square"/><path d=" M 250 862.4079551682686 L 245.4079551682686 857.8159103365372 L 227.03977584134293 853.2238655048058 L 213.2636413461487 853.2238655048058 L 222.44773100961152 857.8159103365372 L 250 862.4079551682686 Z " fill="rgb(192,103,90)" stroke-width="1" stroke="rgba(0,0,0,0)" stroke-linejoin="miter" stroke-linecap="square"/><path d=" M 250 862.4079551682686 L 240.81591033653717 867 L 222.44773100961152 862.4079551682686 L 213.2636413461487 853.2238655048058 L 222.44773100961152 857.8159103365372 L 250 862.4079551682686 Z " fill="rgb(212,138,111)" stroke-width="1" stroke="rgba(0,0,0,0)" stroke-linejoin="miter" stroke-linecap="square"/></svg>